<?xml version="1.0" encoding="UTF-8" standalone="no"?>
<svg width="16px" height="16px" viewBox="0 0 16 16" version="1.1" xmlns="http://www.w3.org/2000/svg" xmlns:xlink="http://www.w3.org/1999/xlink">
    <!-- Generator: Sketch 43 (38999) - http://www.bohemiancoding.com/sketch -->
    <title>like (1)</title>
    <desc>Created with Sketch.</desc>
    <defs></defs>
    <g id="Page-1" stroke="none" stroke-width="1" fill="none" fill-rule="evenodd">
        <g id="Créer-un-évéenment" transform="translate(-99.000000, -362.000000)" fill-rule="nonzero" fill="#8B743D">
            <g id="like-(1)" transform="translate(99.000000, 362.000000)">
                <g id="like">
                    <path d="M15.4561018,5.1277267 C15.2376894,2.56348594 13.5361442,0.703076178 11.4066948,0.703076178 C9.98802112,0.703076178 8.68905699,1.51740832 7.95813788,2.82254977 C7.23383732,1.5005262 5.98810943,0.702769231 4.59216902,0.702769231 C2.46300739,0.702769231 0.761174463,2.563179 0.543049782,5.12741975 C0.525783976,5.24068343 0.454994172,5.83677579 0.670241219,6.80887903 C0.980450198,8.21101594 1.69698114,9.48638346 2.74185016,10.4962413 L7.95468471,15.5421538 L13.2570137,10.4965482 C14.3018827,9.48638346 15.0184137,8.21132289 15.3286226,6.80887903 C15.5438697,5.83708274 15.4730799,5.24099038 15.4561018,5.1277267 Z" id="Shape"></path>
                </g>
            </g>
        </g>
    </g>
</svg>