<?xml version="1.0" encoding="UTF-8" standalone="no"?>
<svg width="16px" height="18px" viewBox="0 0 16 18" version="1.1" xmlns="http://www.w3.org/2000/svg" xmlns:xlink="http://www.w3.org/1999/xlink">
    <!-- Generator: Sketch 43 (38999) - http://www.bohemiancoding.com/sketch -->
    <title>playlist-2</title>
    <desc>Created with Sketch.</desc>
    <defs></defs>
    <g id="Page-1" stroke="none" stroke-width="1" fill="none" fill-rule="evenodd">
        <g id="Créer-un-évéenment" transform="translate(-65.000000, -360.000000)" fill-rule="nonzero" fill="#8B743D">
            <g id="playlist-2" transform="translate(65.000000, 360.000000)">
                <path d="M9.834,12.1682461 L9.3894717,12.3126328 C9.2325283,12.3636094 9.14969811,12.5234648 9.20437736,12.6696445 C9.24766038,12.7853086 9.36407547,12.8577656 9.4885283,12.8577656 C9.52139623,12.8577656 9.55483019,12.8527031 9.58762264,12.8420508 L10.0321509,12.6976641 C10.1890943,12.6466875 10.2719623,12.486832 10.2172453,12.3406523 C10.1625283,12.1944375 9.99090566,12.117375 9.834,12.1682461 Z" id="Shape"></path>
                <path d="M9.834,9.52555078 L9.38943396,9.66997266 C9.2325283,9.72094922 9.14966038,9.88080469 9.20437736,10.0269844 C9.24766038,10.1426484 9.36407547,10.2150703 9.4885283,10.2150703 C9.52139623,10.2150703 9.55479245,10.2100078 9.58762264,10.1993555 L10.0321887,10.0549336 C10.1890943,10.003957 10.2719623,9.84410156 10.2172453,9.69792188 C10.1625283,9.55174219 9.99090566,9.47446875 9.834,9.52555078 Z" id="Shape"></path>
                <path d="M9.834,14.8109414 L9.3894717,14.9553281 C9.2325283,15.0063047 9.14969811,15.1661602 9.20437736,15.3123398 C9.24766038,15.4280039 9.36407547,15.5004609 9.4885283,15.5004609 C9.52139623,15.5004609 9.55483019,15.4953984 9.58762264,15.4847461 L10.0321509,15.3403594 C10.1890943,15.2893828 10.2719623,15.1295273 10.2172453,14.9833477 C10.1625283,14.8371328 9.99090566,14.7600352 9.834,14.8109414 Z" id="Shape"></path>
                <path d="M9.834,6.88282031 L9.38943396,7.02724219 C9.2325283,7.07821875 9.14966038,7.23807422 9.20437736,7.38425391 C9.24766038,7.49991797 9.36407547,7.57233984 9.4885283,7.57233984 C9.52139623,7.57233984 9.55479245,7.56727734 9.58762264,7.556625 L10.0321887,7.41220313 C10.1890943,7.36122656 10.2719623,7.20137109 10.2172453,7.05519141 C10.1625283,6.90901172 9.99090566,6.83180859 9.834,6.88282031 Z" id="Shape"></path>
                <path d="M15.563434,10.3069336 L11.3924151,11.6619609 C11.2355094,11.7129375 11.1526415,11.872793 11.2073585,12.0189727 C11.2506415,12.1346367 11.3670566,12.2070937 11.4915094,12.2070937 C11.5243774,12.2070937 11.5578113,12.2020664 11.5906038,12.1913789 L15.7616226,10.8363164 C15.9185283,10.7853398 16.0013962,10.6254844 15.9466792,10.4793047 C15.8919623,10.3330898 15.7203774,10.2558867 15.563434,10.3069336 Z" id="Shape"></path>
                <path d="M15.563434,5.02147266 L11.3924151,6.37653516 C11.2355094,6.42751172 11.1526415,6.58736719 11.2073585,6.73354688 C11.2506415,6.84921094 11.3670566,6.92163281 11.4915094,6.92163281 C11.5243774,6.92163281 11.5578113,6.91657031 11.5906038,6.90591797 L15.7616226,5.55085547 C15.9185283,5.49987891 16.0013962,5.34002344 15.9466792,5.19384375 C15.8919623,5.04766406 15.7203774,4.97060156 15.563434,5.02147266 Z" id="Shape"></path>
                <path d="M15.563434,12.9496289 L11.3924528,14.3046563 C11.2355472,14.3556328 11.1526792,14.5154883 11.2073962,14.661668 C11.2506792,14.777332 11.3670943,14.8497539 11.4915472,14.8497539 C11.5244151,14.8497539 11.5578491,14.8446914 11.5906415,14.8340391 L15.7616226,13.4790117 C15.9185283,13.4280352 16.0013962,13.2681797 15.9466792,13.122 C15.8919623,12.9758555 15.7203774,12.8986523 15.563434,12.9496289 Z" id="Shape"></path>
                <path d="M15.563434,7.66420313 L11.3924528,9.01923047 C11.2355472,9.07020703 11.1526792,9.2300625 11.2073962,9.37624219 C11.2506792,9.49190625 11.3670943,9.56432813 11.4915472,9.56432813 C11.5244151,9.56432813 11.5578491,9.55930078 11.5906415,9.54861328 L15.7616226,8.19355078 C15.9185283,8.14257422 16.0013962,7.98271875 15.9466792,7.83653906 C15.8919623,7.69039453 15.7203774,7.61319141 15.563434,7.66420313 Z" id="Shape"></path>
                <path d="M15.6077358,0.145371094 C15.3849811,-0.0020390625 15.0979623,-0.0400429688 14.8398491,0.0437695312 L7.26988679,2.50305469 L7.26992453,2.503125 C7.26943396,2.50326562 7.26890566,2.50333594 7.26841509,2.50354687 L6.17626415,2.86435547 C5.83966038,2.97551953 5.61354717,3.27382031 5.61354717,3.60653906 L5.61354717,12.0744141 C5.04411321,12.0345469 4.40886792,12.1230703 3.75407547,12.3357656 C2.76883019,12.6558633 1.84233962,13.2225469 1.14524528,13.9313672 C0.430226415,14.6584687 0.0364150943,15.4555312 0.0364150943,16.1757422 C0.0364150943,16.7647148 0.30709434,17.2681875 0.798490566,17.5933828 C1.20667925,17.8634883 1.74969811,17.9999648 2.3630566,17.9999297 C2.85837736,17.9999297 3.39954717,17.9108789 3.95226415,17.7313711 C4.93754717,17.4112734 5.86403774,16.8445898 6.56109434,16.1357695 C7.27607547,15.408668 7.66988679,14.6116055 7.66988679,13.8913594 L7.66988679,6.03752344 L15.3964528,3.52736719 C15.7355849,3.41722266 15.963434,3.11839453 15.963434,2.7838125 L15.963434,0.787324219 C15.963434,0.532792969 15.8304528,0.29278125 15.6077358,0.145371094 Z M7.06807547,13.8913945 C7.06807547,14.4626133 6.72154717,15.1426055 6.11739623,15.7570312 C5.48633962,16.3987383 4.6470566,16.9118789 3.75411321,17.2019883 C2.70079245,17.5441641 1.72626415,17.5195898 1.14709434,17.1363516 C0.809509434,16.9129336 0.638301887,16.5897422 0.638301887,16.1757773 C0.638301887,15.6045586 0.984830189,14.9246016 1.58901887,14.3101758 C2.22007547,13.6684687 3.05935849,13.1553281 3.95226415,12.8652539 C4.44150943,12.7063125 4.91271698,12.6255234 5.34098113,12.6255234 C5.52166038,12.6255234 5.69471698,12.6398672 5.85830189,12.6688008 C5.94626415,12.684375 6.03732075,12.6625781 6.10637736,12.6093164 C6.17543396,12.5560547 6.21539623,12.4768828 6.21539623,12.3933867 L6.21539623,3.60650391 C6.21539623,3.51066797 6.2805283,3.42481641 6.37739623,3.39278906 L6.37743396,3.39278906 L7.06807547,3.164625 L7.06807547,13.8913945 L7.06807547,13.8913945 Z M15.3616604,2.7838125 L15.3616226,2.7838125 C15.3616226,2.88017578 15.296,2.96620312 15.1983396,2.99791406 L7.66996226,5.44369922 L7.66996226,2.96690625 L15.0381132,0.573222656 C15.1135094,0.548683594 15.1941887,0.55940625 15.2592453,0.602507812 C15.3243774,0.645609375 15.3617358,0.71296875 15.3617358,0.787359375 L15.3617358,2.7838125 L15.3616604,2.7838125 Z" id="Shape"></path>
            </g>
        </g>
    </g>
</svg>