<?xml version="1.0" encoding="UTF-8" standalone="no"?>
<svg width="19px" height="16px" viewBox="0 0 19 16" version="1.1" xmlns="http://www.w3.org/2000/svg" xmlns:xlink="http://www.w3.org/1999/xlink">
    <!-- Generator: Sketch 43 (38999) - http://www.bohemiancoding.com/sketch -->
    <title>photo-bis</title>
    <desc>Created with Sketch.</desc>
    <defs></defs>
    <g id="Page-1" stroke="none" stroke-width="1" fill="none" fill-rule="evenodd">
        <g id="Créer-un-évéenment" transform="translate(-402.000000, -400.000000)" fill-rule="nonzero" fill="#FFFFFF">
            <g id="photo-bis" transform="translate(402.000000, 400.000000)">
                <g id="Group">
                    <path d="M6.84883721,0.36215 L5.74418605,2.57145233 L1.54651163,2.57145233 C0.689744186,2.57145233 0,3.2611943 0,4.11796395 L0,13.8389052 C0,14.6956727 0.689744186,15.3854169 1.54651163,15.3854169 L17.4534884,15.3854169 C18.3102558,15.3854169 19,14.6956727 19,13.8389052 L19,4.11796395 C19,3.2611943 18.3102558,2.57145233 17.4534884,2.57145233 L13.255814,2.57145233 L12.1511628,0.36215 L6.84883721,0.36215 Z M9.5,3.89703372 C12.2933093,3.89703372 14.5813953,6.18514628 14.5813953,8.97841802 C14.5813953,11.7717273 12.2933093,14.0598355 9.5,14.0598355 C6.70671279,14.0598355 4.41860465,11.7717273 4.41860465,8.97841802 C4.41860465,6.18513302 6.70673488,3.89703372 9.5,3.89703372 Z M9.5,6.10633605 C7.90073023,6.10633605 6.62790698,7.37914826 6.62790698,8.97841802 C6.62790698,10.5777099 7.90075233,11.8505331 9.5,11.8505331 C11.099314,11.8505331 12.372093,10.577732 12.372093,8.97841802 C12.372093,7.37914826 11.099314,6.10633605 9.5,6.10633605 Z" id="Shape"></path>
                </g>
            </g>
        </g>
    </g>
</svg>