<?xml version="1.0" encoding="UTF-8" standalone="no"?>
<svg width="16px" height="16px" viewBox="0 0 16 16" version="1.1" xmlns="http://www.w3.org/2000/svg" xmlns:xlink="http://www.w3.org/1999/xlink">
    <!-- Generator: Sketch 43 (38999) - http://www.bohemiancoding.com/sketch -->
    <title>playlist</title>
    <desc>Created with Sketch.</desc>
    <defs></defs>
    <g id="Page-1" stroke="none" stroke-width="1" fill="none" fill-rule="evenodd">
        <g id="Créer-un-évéenment" transform="translate(-361.000000, -400.000000)" fill-rule="nonzero" fill="#FFFFFF">
            <g id="playlist" transform="translate(361.000000, 400.000000)">
                <path d="M12,8 C9.79090909,8 8,9.79090909 8,12 C8,14.2090909 9.79090909,16 12,16 C14.2090909,16 16,14.2090909 16,12 C16,9.79090909 14.2090909,8 12,8 Z M12,15.2727273 C10.1923636,15.2727273 8.72727273,13.8076364 8.72727273,12 C8.72727273,10.1923636 10.1923636,8.72727273 12,8.72727273 C13.8076364,8.72727273 15.2727273,10.1923636 15.2727273,12 C15.2727273,13.8076364 13.8076364,15.2727273 12,15.2727273 Z" id="Shape"></path>
                <path d="M13.4545455,11.6363636 L12.3636364,11.6363636 L12.3636364,10.5454545 C12.3636364,10.3443636 12.2007273,10.1818182 12,10.1818182 C11.7992727,10.1818182 11.6363636,10.3443636 11.6363636,10.5454545 L11.6363636,11.6363636 L10.5454545,11.6363636 C10.3447273,11.6363636 10.1818182,11.7989091 10.1818182,12 C10.1818182,12.2010909 10.3447273,12.3636364 10.5454545,12.3636364 L11.6363636,12.3636364 L11.6363636,13.4545455 C11.6363636,13.6556364 11.7992727,13.8181818 12,13.8181818 C12.2007273,13.8181818 12.3636364,13.6556364 12.3636364,13.4545455 L12.3636364,12.3636364 L13.4545455,12.3636364 C13.6552727,12.3636364 13.8181818,12.2010909 13.8181818,12 C13.8181818,11.7989091 13.6552727,11.6363636 13.4545455,11.6363636 Z" id="Shape"></path>
                <path d="M0.363636364,0.727272727 L10.5454545,0.727272727 C10.7461818,0.727272727 10.9090909,0.564727273 10.9090909,0.363636364 C10.9090909,0.162545455 10.7461818,0 10.5454545,0 L0.363636364,0 C0.162909091,0 0,0.162545455 0,0.363636364 C0,0.564727273 0.162909091,0.727272727 0.363636364,0.727272727 Z M8.72727273,7.27272727 L0.363636364,7.27272727 C0.162909091,7.27272727 0,7.43527273 0,7.63636364 C0,7.83745455 0.162909091,8 0.363636364,8 L8.72727273,8 C8.928,8 9.09090909,7.83745455 9.09090909,7.63636364 C9.09090909,7.43527273 8.928,7.27272727 8.72727273,7.27272727 Z M10.5454545,3.63636364 L0.363636364,3.63636364 C0.162909091,3.63636364 0,3.79890909 0,4 C0,4.20109091 0.162909091,4.36363636 0.363636364,4.36363636 L10.5454545,4.36363636 C10.7461818,4.36363636 10.9090909,4.20109091 10.9090909,4 C10.9090909,3.79890909 10.7461818,3.63636364 10.5454545,3.63636364 Z M6.18181818,10.9090909 L0.363636364,10.9090909 C0.162909091,10.9090909 0,11.0716364 0,11.2727273 C0,11.4738182 0.162909091,11.6363636 0.363636364,11.6363636 L6.18181818,11.6363636 C6.38254545,11.6363636 6.54545455,11.4738182 6.54545455,11.2727273 C6.54545455,11.0716364 6.38254545,10.9090909 6.18181818,10.9090909 Z" id="Shape"></path>
            </g>
        </g>
    </g>
</svg>