<?xml version="1.0" encoding="UTF-8" standalone="no"?>
<svg width="24px" height="19px" viewBox="0 0 24 19" version="1.1" xmlns="http://www.w3.org/2000/svg" xmlns:xlink="http://www.w3.org/1999/xlink">
    <!-- Generator: Sketch 43 (38999) - http://www.bohemiancoding.com/sketch -->
    <title>Chat</title>
    <desc>Created with Sketch.</desc>
    <defs></defs>
    <g id="Page-1" stroke="none" stroke-width="1" fill="none" fill-rule="evenodd">
        <g id="Créer-un-évéenment" transform="translate(-254.000000, -441.000000)" fill="#FFFFFF">
            <g id="Bottom-Bar/Tab-Bar" transform="translate(66.000000, 438.000000)">
                <g id="Chat" transform="translate(188.714286, 3.000000)">
                    <path d="M0,10.4591464 C0,13.2092437 2.026875,15.2718166 4.34125,16.0178536 C4.326875,16.1056227 4.3125,16.1933918 4.3125,16.2811608 L4.3125,18.4168747 C4.3125,19.1336553 4.7725,19.1629117 5.246875,18.6509255 L7.259375,16.0909945 L8.898125,16.0909945 C11.370625,16.0909945 13.455,14.1015625 14.216875,11.7025415 L15.525,11.7025415 L17.753125,14.2624724 C18.2275,14.7744586 18.6875,15.0085094 18.6875,14.2917288 L18.6875,11.7317978 C21.001875,11.6732851 23,8.82079064 23,6.07069339 C23,2.72084089 20.484375,0 17.39375,0 L14.101875,0 C11.58625,0 9.45875,1.9601757 8.74,4.38845305 L5.60625,4.38845305 C2.515625,4.38845305 0,7.10929395 0,10.4591464 L0,10.4591464 Z M14.49,10.2397238 L14.504375,9.78625031 C14.504375,6.87524312 12.606875,5.14911825 10.076875,4.59324753 C10.7525,2.83786631 12.463125,1.46281768 14.274375,1.46281768 L17.465625,1.46281768 C19.80875,1.46281768 21.576875,3.42299338 21.5625,5.88052709 C21.53375,10.5322873 17.25,10.2689801 17.25,10.2689801 L17.25,11.6586569 L15.8125,10.2397238 L14.49,10.2397238 L14.49,10.2397238 Z" id="Shape"></path>
                </g>
            </g>
        </g>
    </g>
</svg>