<?xml version="1.0" encoding="UTF-8" standalone="no"?>
<svg width="16px" height="16px" viewBox="0 0 16 16" version="1.1" xmlns="http://www.w3.org/2000/svg" xmlns:xlink="http://www.w3.org/1999/xlink">
    <!-- Generator: Sketch 43 (38999) - http://www.bohemiancoding.com/sketch -->
    <title>sort-arrows-couple-pointing-up-and-down</title>
    <desc>Created with Sketch.</desc>
    <defs></defs>
    <g id="Page-1" stroke="none" stroke-width="1" fill="none" fill-rule="evenodd">
        <g id="Créer-un-évéenment" transform="translate(-294.000000, -362.000000)" fill-rule="nonzero" fill="#FFFFFF">
            <g id="sort-arrows-couple-pointing-up-and-down" transform="translate(294.000000, 362.000000)">
                <path d="M1.01592365,6.48904928 L14.628247,6.48904928 C14.8915932,6.48904928 15.1195534,6.41774755 15.3119149,6.27502571 C15.5041698,6.13234334 15.6006964,5.96338152 15.6006964,5.7681008 C15.6006964,5.57282008 15.5042231,5.40393718 15.3119149,5.26105751 L8.50572658,0.214023565 C8.31341839,0.0714990228 8.08561778,0 7.82211192,0 C7.55860606,0 7.33080545,0.0714990228 7.13833762,0.214023565 L0.332149352,5.26105751 C0.13968152,5.40377934 0.0435274223,5.57282008 0.0435274223,5.7681008 C0.0435274223,5.96334206 0.13968152,6.13234334 0.332149352,6.27502571 C0.524830032,6.41774755 0.752630637,6.48904928 1.01592365,6.48904928 Z" id="Shape"></path>
                <path d="M14.628247,9.37335616 L1.01592365,9.37335616 C0.752417789,9.37335616 0.524617184,9.44469735 0.332149352,9.58726135 C0.13968152,9.72998318 0.0435274223,9.89890554 0.0435274223,10.0941863 C0.0435274223,10.289467 0.13968152,10.4585077 0.332149352,10.6011506 L7.13833762,15.6481057 C7.3310183,15.7908275 7.55881891,15.8622871 7.82211192,15.8622871 C8.08540494,15.8622871 8.31341839,15.7908275 8.50572658,15.6481057 L15.3119149,10.6011112 C15.5041698,10.4585077 15.6006964,10.289467 15.6006964,10.0941468 C15.6006964,9.89890554 15.5042231,9.72998318 15.3119149,9.58722189 C15.1196067,9.44453951 14.8915932,9.37335616 14.628247,9.37335616 Z" id="Shape"></path>
            </g>
        </g>
    </g>
</svg>