<?xml version="1.0" encoding="UTF-8" standalone="no"?>
<svg width="20px" height="19px" viewBox="0 0 20 19" version="1.1" xmlns="http://www.w3.org/2000/svg" xmlns:xlink="http://www.w3.org/1999/xlink">
    <!-- Generator: Sketch 43 (38999) - http://www.bohemiancoding.com/sketch -->
    <title>Le like</title>
    <desc>Created with Sketch.</desc>
    <defs></defs>
    <g id="Page-1" stroke="none" stroke-width="1" fill="none" fill-rule="evenodd">
        <g id="Créer-un-évéenment" transform="translate(-363.000000, -362.000000)" fill-rule="nonzero" fill="#ED1829">
            <g id="Le-like" transform="translate(363.000000, 362.000000)">
                <g id="like">
                    <path d="M19.9657692,5.86230769 C19.6738462,2.64923077 17.3996154,0.318076923 14.5534615,0.318076923 C12.6573077,0.318076923 10.9211538,1.33846154 9.94423077,2.97384615 C8.97615385,1.31730769 7.31115385,0.317692308 5.44538462,0.317692308 C2.59961538,0.317692308 0.325,2.64884615 0.0334615385,5.86192308 C0.0103846154,6.00384615 -0.0842307692,6.75076923 0.203461538,7.96884615 C0.618076923,9.72576923 1.57576923,11.3238462 2.97230769,12.5892308 L9.93961538,18.9119231 L17.0265385,12.5896154 C18.4230769,11.3238462 19.3807692,9.72615385 19.7953846,7.96884615 C20.0830769,6.75115385 19.9884615,6.00423077 19.9657692,5.86230769 Z" id="Shape"></path>
                </g>
            </g>
        </g>
    </g>
</svg>