<?xml version="1.0" encoding="UTF-8" standalone="no"?>
<svg width="16px" height="11px" viewBox="0 0 16 11" version="1.1" xmlns="http://www.w3.org/2000/svg" xmlns:xlink="http://www.w3.org/1999/xlink">
    <!-- Generator: Sketch 43 (38999) - http://www.bohemiancoding.com/sketch -->
    <title>close-envelope</title>
    <desc>Created with Sketch.</desc>
    <defs></defs>
    <g id="Page-1" stroke="none" stroke-width="1" fill="none" fill-rule="evenodd">
        <g id="Créer-un-évéenment" transform="translate(-134.000000, -329.000000)" fill-rule="nonzero" fill="#8B743D">
            <g id="close-envelope" transform="translate(134.000000, 329.000000)">
                <path d="M8,7.7 L6.02057143,6.0324 L0.361142857,10.7019 C0.566857143,10.8856 0.844571429,11 1.15085714,11 L14.8491429,11 C15.1542857,11 15.4308571,10.8856 15.6354286,10.7019 L9.97942857,6.0324 L8,7.7 Z" id="Shape"></path>
                <path d="M15.6388571,0.2981 C15.4331429,0.1133 15.1565714,0 14.8491429,0 L1.15085714,0 C0.845714286,0 0.569142857,0.1144 0.363428571,0.3003 L8,6.6 L15.6388571,0.2981 Z" id="Shape"></path>
                <polygon id="Shape" points="0 0.9658 0 10.1046 5.52342857 5.5869"></polygon>
                <polygon id="Shape" points="10.4765714 5.5869 16 10.1046 16 0.9625"></polygon>
            </g>
        </g>
    </g>
</svg>