<?xml version="1.0" encoding="UTF-8" standalone="no"?>
<svg width="16px" height="16px" viewBox="0 0 16 16" version="1.1" xmlns="http://www.w3.org/2000/svg" xmlns:xlink="http://www.w3.org/1999/xlink">
    <!-- Generator: Sketch 43 (38999) - http://www.bohemiancoding.com/sketch -->
    <title>new-message-interface-symbol</title>
    <desc>Created with Sketch.</desc>
    <defs></defs>
    <g id="Page-1" stroke="none" stroke-width="1" fill="none" fill-rule="evenodd">
        <g id="Créer-un-évéenment" transform="translate(-369.000000, -448.000000)" fill-rule="nonzero">
            <g id="new-message-interface-symbol" transform="translate(369.000000, 448.000000)">
                <path d="M15.221677,1.57270886 C15.221677,1.57270886 15.389976,0.767189873 15.0963559,0.533594937 L14.5220217,0.0780759494 C14.2291241,-0.154050633 13.4993967,0.205417722 13.4993967,0.205417722 L13.051106,0.789012658 L14.7733863,2.1563038 L15.221677,1.57270886 Z" id="Shape" fill="#ED1829"></path>
                <polygon id="Shape" fill="#FFFFFF" points="6.32091591 9.54075949 6.28511345 11.3912405 8.04391873 10.9080759 14.5485309 2.44810127 13.9748943 1.9918481 7.60494617 10.2757215 6.95828444 10.5165823 7.03061189 9.82017722 13.40056 1.53632911 12.8262257 1.08007595"></polygon>
                <path d="M0.021850215,14.9994766 C0.021850215,15.5486248 0.474561332,15.9937975 1.02236536,15.9937975 L12.6277904,15.9937975 C13.1803596,15.9937975 13.6283055,15.5523922 13.6283055,14.9864921 L13.6283055,5.07865823 L12.9121566,5.80632911 L12.9121566,15.2661266 L0.737974195,15.2661266 L0.737974195,2.89562025 L10.0476358,2.89562025 L10.7637598,2.16794937 L1.01316901,2.16794937 C0.46567876,2.16794937 0.021850215,2.61230102 0.021850215,3.16227027 L0.021850215,14.9994766 Z" id="Shape" fill="#FFFFFF"></path>
            </g>
        </g>
    </g>
</svg>