<?xml version="1.0" encoding="UTF-8" standalone="no"?>
<svg width="51px" height="50px" viewBox="0 0 51 50" version="1.1" xmlns="http://www.w3.org/2000/svg" xmlns:xlink="http://www.w3.org/1999/xlink">
    <!-- Generator: Sketch 43 (38999) - http://www.bohemiancoding.com/sketch -->
    <title>balloons</title>
    <desc>Created with Sketch.</desc>
    <defs></defs>
    <g id="Page-1" stroke="none" stroke-width="1" fill="none" fill-rule="evenodd">
        <g id="Créer-un-évéenment" transform="translate(-187.000000, -46.000000)" fill-rule="nonzero" fill="#FFFFFF">
            <g id="balloons" transform="translate(187.892635, 46.000000)">
                <path d="M19.684,5.53390558 C20.332,5.71738197 20.94525,5.95214592 21.506875,6.23175966 C21.655,6.3054721 21.81675,6.34055794 21.976375,6.34055794 C22.299625,6.34055794 22.61425,6.19678112 22.78825,5.93948498 C23.048,5.55504292 22.8955,5.06266094 22.447625,4.83959227 C21.774125,4.50429185 21.041875,4.22371245 20.271125,4.0054721 C19.779625,3.86641631 19.249375,4.09549356 19.087125,4.51759657 C18.925125,4.93969957 19.192375,5.39474249 19.684,5.53390558 Z" id="Shape"></path>
                <path d="M26.0405,14.1484979 C26.0405,15.348927 25.878125,16.5759657 25.557875,17.795279 C25.444,18.2288627 25.761125,18.6595494 26.26625,18.7572961 C26.335625,18.7707082 26.405,18.7771459 26.47325,18.7771459 C26.901875,18.7771459 27.28875,18.523176 27.387,18.1492489 C27.73775,16.8139485 27.915625,15.4679185 27.915625,14.1484979 C27.915625,11.338412 27.116625,8.99763948 25.540875,7.19152361 C25.230625,6.83583691 24.642875,6.76330472 24.2285,7.02972103 C23.814125,7.29613734 23.729625,7.80053648 24.04,8.15622318 C25.367375,9.6777897 26.0405,11.6938841 26.0405,14.1484979 L26.0405,14.1484979 Z" id="Shape"></path>
                <path d="M12.50175,26.4363734 C10.171875,25.0723176 8.088625,22.4564378 6.928875,19.4391631 C6.766625,19.0170601 6.23625,18.7878755 5.74475,18.9271459 C5.253,19.0664163 4.986,19.5214592 5.14825,19.9435622 C6.451875,23.3350858 8.747125,26.1862661 11.44525,27.7660944 C11.606875,27.8607296 11.79075,27.9061159 11.972625,27.9061159 C12.272125,27.9061159 12.5665,27.7831545 12.748,27.5548283 C13.039625,27.1874464 12.9295,26.6868026 12.50175,26.4363734 L12.50175,26.4363734 Z" id="Shape"></path>
                <path d="M45.23875,13.1422747 C42.3845,10.7561159 38.385375,9.44206009 33.978,9.44206009 C33.04825,9.44206009 32.129125,9.50128755 31.2355,9.61652361 C30.491375,7.29774678 29.14525,5.29409871 27.23875,3.70021459 C24.3845,1.31405579 20.385375,0 15.978,0 C11.570625,0 7.5715,1.31405579 4.71725,3.70021459 C1.657625,6.25804721 0.040375,9.87103004 0.040375,14.1484979 C0.040375,18.5048283 1.703625,23.0392704 4.60375,26.5891631 C7.076,29.6155579 10.126375,31.5628755 13.383875,32.2412017 C13.165,32.5938841 13.040375,32.9959227 13.040375,33.4226395 L13.040375,35.1393777 C13.040375,35.5837983 13.460125,35.9440987 13.977875,35.9440987 L14.98475,35.9440987 C14.908375,36.4390558 14.76175,36.7746781 14.600125,37.1446352 C14.33775,37.7448498 14.040375,38.4253219 14.040375,39.7152361 C14.040375,41.0059013 14.337625,41.686588 14.6,42.2872318 C14.836375,42.8282189 15.040375,43.2953863 15.040375,44.2943133 C15.040375,45.2932403 14.836375,45.7604077 14.6,46.3013948 C14.337625,46.9020386 14.040375,47.5827253 14.040375,48.8733906 C14.040375,49.3178112 14.460125,49.6781116 14.977875,49.6781116 C15.495625,49.6781116 15.915375,49.3178112 15.915375,48.8733906 C15.915375,47.8745708 16.119375,47.4074034 16.355625,46.8664163 C16.618,46.2657725 16.915375,45.5850858 16.915375,44.2944206 C16.915375,43.0037554 16.618,42.3229614 16.355625,41.7224249 C16.119375,41.1814378 15.915375,40.7142704 15.915375,39.7154506 C15.915375,38.7174893 16.119375,38.2506438 16.355625,37.7101931 C16.557125,37.2491416 16.77875,36.7396996 16.871,35.9443133 L17.977875,35.9443133 C18.495625,35.9443133 18.915375,35.5840129 18.915375,35.1395923 L18.915375,33.4228541 C18.915375,32.9961373 18.79075,32.5940987 18.571875,32.2414163 C19.044625,32.1430258 19.513,32.0179185 19.976,31.8665236 C22.43925,37.0658798 26.71025,40.6848712 31.387375,41.6775751 C31.16625,42.0316524 31.040375,42.4358369 31.040375,42.8650215 L31.040375,44.5817597 C31.040375,45.0261803 31.460125,45.3864807 31.977875,45.3864807 L32.98475,45.3864807 C32.908375,45.8814378 32.76175,46.2170601 32.600125,46.5870172 C32.33775,47.1872318 32.040375,47.8677039 32.040375,49.157618 C32.040375,49.6020386 32.460125,49.9623391 32.977875,49.9623391 C33.495625,49.9623391 33.915375,49.6020386 33.915375,49.157618 C33.915375,48.1596567 34.119375,47.6928112 34.355625,47.1523605 C34.557125,46.691309 34.77875,46.181867 34.871,45.3864807 L35.977875,45.3864807 C36.495625,45.3864807 36.915375,45.0261803 36.915375,44.5817597 L36.915375,42.8650215 C36.915375,42.4383047 36.79075,42.0362661 36.571875,41.6835837 C39.829375,41.0052575 42.87975,39.0578326 45.352,36.0315451 C48.252,32.4816524 49.91525,27.9472103 49.91525,23.5908798 C49.9155,19.3130901 48.29825,15.7001073 45.23875,13.1422747 L45.23875,13.1422747 Z M6.139,25.6651288 C3.454875,22.3795064 1.9155,18.181867 1.9155,14.1484979 C1.9155,10.3152361 3.33675,7.10096567 6.0255,4.85321888 C8.527625,2.76137339 12.062125,1.60944206 15.978,1.60944206 C19.893875,1.60944206 23.4285,2.76137339 25.9305,4.85311159 C28.61925,7.10096567 30.0405,10.3152361 30.0405,14.1483906 C30.0405,18.181867 28.501125,22.3795064 25.817,25.6650215 C23.0585,29.0417382 19.564375,30.9012876 15.978,30.9012876 C12.391625,30.9012876 8.897375,29.0417382 6.139,25.6651288 L6.139,25.6651288 Z M17.0405,33.4227468 L17.0405,34.3347639 L14.9155,34.3347639 L14.9155,33.4227468 C14.9155,32.9198498 15.392125,32.5107296 15.978,32.5107296 C16.563875,32.5107296 17.0405,32.9198498 17.0405,33.4227468 Z M35.0405,42.8648069 L35.0405,43.776824 L32.9155,43.776824 L32.9155,42.8648069 C32.9155,42.3619099 33.392125,41.9527897 33.978,41.9527897 C34.563875,41.9527897 35.0405,42.3619099 35.0405,42.8648069 Z M43.817,35.1071888 C41.0585,38.4837983 37.564375,40.3433476 33.978,40.3433476 C31.45025,40.3433476 28.920625,39.3977468 26.662625,37.6089056 C24.633375,36.0012876 22.876375,33.7317597 21.677125,31.1812232 C22.287625,30.8870172 22.885375,30.5456009 23.46725,30.1581545 C24.80825,33.2078326 26.954625,35.7497854 29.44525,37.2079399 C29.606875,37.3025751 29.79075,37.3479614 29.972625,37.3479614 C30.272125,37.3479614 30.5665,37.225 30.748,36.9966738 C31.03975,36.6295064 30.9295,36.1288627 30.50175,35.8784335 C28.206375,34.5345494 26.151,31.9754292 24.981625,29.0145923 C25.817,28.3060086 26.610875,27.4966738 27.35225,26.5891631 C30.25225,23.0392704 31.9155,18.5048283 31.9155,14.1484979 C31.9155,13.1226395 31.8215,12.1356223 31.637875,11.1915236 C32.40025,11.0984979 33.184375,11.0515021 33.978,11.0515021 C37.893875,11.0515021 41.4285,12.2034335 43.9305,14.2951717 C46.61925,16.5430258 48.0405,19.7572961 48.0405,23.5904506 C48.0405,27.6240343 46.501125,31.8216738 43.817,35.1071888 L43.817,35.1071888 Z" id="Shape"></path>
                <path d="M43.54075,16.6334764 C43.2305,16.2777897 42.64275,16.2052575 42.228375,16.4716738 C41.814,16.7380901 41.7295,17.2424893 42.039875,17.598176 C43.367375,19.1197425 44.0405,21.1358369 44.0405,23.5904506 C44.0405,24.7908798 43.878125,26.0179185 43.557875,27.2372318 C43.444,27.6708155 43.761125,28.1015021 44.26625,28.1992489 C44.335625,28.2126609 44.405,28.2190987 44.47325,28.2190987 C44.901875,28.2190987 45.28875,27.9651288 45.387,27.5912017 C45.73775,26.2559013 45.915625,24.9098712 45.915625,23.5904506 C45.9155,20.7803648 45.1165,18.4396996 43.54075,16.6334764 L43.54075,16.6334764 Z" id="Shape"></path>
                <path d="M40.44775,14.2816524 C39.77425,13.9463519 39.042,13.6657725 38.27125,13.4475322 C37.779625,13.3084764 37.2495,13.5375536 37.08725,13.9596567 C36.925125,14.3817597 37.19225,14.8366953 37.683875,14.9759657 C38.331875,15.1594421 38.945125,15.394206 39.50675,15.6738197 C39.654875,15.7475322 39.816625,15.782618 39.97625,15.782618 C40.2995,15.782618 40.614125,15.6388412 40.788125,15.3815451 C41.048125,14.997103 40.895625,14.504721 40.44775,14.2816524 L40.44775,14.2816524 Z" id="Shape"></path>
            </g>
        </g>
    </g>
</svg>