<?xml version="1.0" encoding="UTF-8" standalone="no"?>
<svg width="16px" height="16px" viewBox="0 0 16 16" version="1.1" xmlns="http://www.w3.org/2000/svg" xmlns:xlink="http://www.w3.org/1999/xlink">
    <!-- Generator: Sketch 43 (38999) - http://www.bohemiancoding.com/sketch -->
    <title>Shape</title>
    <desc>Created with Sketch.</desc>
    <defs></defs>
    <g id="Page-1" stroke="none" stroke-width="1" fill="none" fill-rule="evenodd">
        <g id="Créer-un-évéenment" transform="translate(-266.000000, -400.000000)" fill="#FFFFFF">
            <path d="M268.13,409 C268.33,409.79 268.76,410.59 269.32,411.3 L269.19,411.44 L267.81,412.81 L269.19,414.19 L270.56,412.81 L270.69,412.68 C271.41,413.24 272.21,413.67 273,413.87 L273,414 L273,416 L275,416 L275,414 L275,413.87 C275.79,413.67 276.59,413.25 277.31,412.68 L278.12,413.5 L278.81,414.19 L280.19,412.81 L279.5,412.12 L278.68,411.31 C279.25,410.59 279.67,409.79 279.87,409 L281,409 L282,409 L282,407 L281,407 L279.87,407 C279.67,406.21 279.24,405.41 278.68,404.69 L278.81,404.56 L280.19,403.19 L278.81,401.81 L277.44,403.19 L277.3,403.32 C276.59,402.76 275.79,402.33 275,402.13 L275,402 L275,400 L273,400 L273,402 L273,402.13 C272.21,402.33 271.41,402.76 270.69,403.32 L269.19,401.81 L267.81,403.19 L269.32,404.69 C268.76,405.41 268.33,406.21 268.13,407 L266,407 L266,409 L268.13,409 L268.13,409 Z M272,408.75 L272,407.25 L273.25,406 L274.75,406 L276,407.25 L276,408.75 L274.75,410 L273.25,410 L272,408.75 L272,408.75 Z" id="Shape"></path>
        </g>
    </g>
</svg>