<?xml version="1.0" encoding="UTF-8" standalone="no"?>
<svg width="50px" height="50px" viewBox="0 0 50 50" version="1.1" xmlns="http://www.w3.org/2000/svg" xmlns:xlink="http://www.w3.org/1999/xlink">
    <!-- Generator: Sketch 43 (38999) - http://www.bohemiancoding.com/sketch -->
    <title>soirée</title>
    <desc>Created with Sketch.</desc>
    <defs></defs>
    <g id="Page-1" stroke="none" stroke-width="1" fill="none" fill-rule="evenodd">
        <g id="Créer-un-évéenment" transform="translate(-123.000000, -43.000000)" fill-rule="nonzero" fill="#FFFFFF">
            <g id="soirée" transform="translate(123.000000, 43.000000)">
                <path d="M43.6419753,9.03614458 C43.7654321,8.85542169 43.7037037,8.61445783 43.5802469,8.37349398 L42.345679,6.80722892 L42.962963,4.87951807 C43.0246914,4.63855422 42.962963,4.39759036 42.7777778,4.27710843 C42.5925926,4.09638554 42.345679,4.03614458 42.1604938,4.15662651 L40.2469136,4.81927711 L38.5802469,3.6746988 C38.3950617,3.55421687 38.1481481,3.4939759 37.9012346,3.61445783 C37.7160494,3.73493976 37.5925926,3.91566265 37.5925926,4.15662651 L37.654321,6.14457831 L35.9876543,7.34939759 C35.8024691,7.46987952 35.6790123,7.71084337 35.7407407,7.95180723 C35.8024691,8.19277108 35.9259259,8.37349398 36.1728395,8.43373494 L38.1481481,8.97590361 L38.7654321,10.9036145 C38.8271605,11.1445783 39.0123457,11.2650602 39.2592593,11.3253012 L39.3209877,11.3253012 C39.5061728,11.3253012 39.691358,11.2048193 39.8148148,11.0843373 L40.9876543,9.45783133 L43.0246914,9.45783133 C43.3333333,9.3373494 43.5185185,9.21686747 43.6419753,9.03614458 Z M41.1728395,7.28915663 L41.8518519,8.13253012 L40.7407407,8.13253012 C40.5555556,8.13253012 40.3703704,8.25301205 40.2469136,8.37349398 L39.6296296,9.27710843 L39.2592593,8.25301205 C39.1975309,8.07228916 39.0123457,7.89156627 38.8271605,7.89156627 L37.7777778,7.59036145 L38.7037037,6.92771084 C38.8888889,6.80722892 38.9506173,6.62650602 38.9506173,6.44578313 L38.8888889,5.36144578 L39.8148148,6.02409639 C40,6.14457831 40.1851852,6.14457831 40.3703704,6.08433735 L41.4197531,5.72289157 L41.0493827,6.74698795 C40.9876543,6.92771084 41.0493827,7.10843373 41.1728395,7.28915663 Z" id="Shape"></path>
                <path d="M11.3580247,4.27710843 C11.3580247,4.03614458 11.2345679,3.85542169 11.0493827,3.73493976 L9.25925926,2.71084337 L9.07407407,0.722891566 C9.07407407,0.481927711 8.88888889,0.301204819 8.7037037,0.240963855 C8.45679012,0.180722892 8.20987654,0.180722892 8.08641975,0.361445783 L6.60493827,1.74698795 L4.62962963,1.3253012 C4.38271605,1.26506024 4.13580247,1.38554217 4.01234568,1.5060241 C3.88888889,1.68674699 3.82716049,1.92771084 3.95061728,2.10843373 L4.81481481,3.91566265 L3.7654321,5.6626506 C3.64197531,5.84337349 3.64197531,6.08433735 3.7654321,6.3253012 C3.88888889,6.5060241 4.13580247,6.62650602 4.38271605,6.56626506 L6.41975309,6.3253012 L7.77777778,7.8313253 C7.90123457,7.95180723 8.08641975,8.01204819 8.27160494,8.01204819 L8.45679012,8.01204819 C8.7037037,7.95180723 8.82716049,7.77108434 8.88888889,7.53012048 L9.25925926,5.54216867 L11.1111111,4.75903614 C11.1728395,4.69879518 11.3580247,4.45783133 11.3580247,4.27710843 Z M9.32098765,4.15662651 L8.27160494,4.57831325 C8.08641975,4.63855422 7.96296296,4.81927711 7.90123457,5 L7.65432099,6.08433735 L6.91358025,5.24096386 C6.79012346,5.12048193 6.60493827,5 6.35802469,5.06024096 L5.24691358,5.18072289 L5.80246914,4.21686747 C5.92592593,4.03614458 5.92592593,3.85542169 5.80246914,3.6746988 L5.30864198,2.71084337 L6.41975309,2.95180723 C6.60493827,3.01204819 6.85185185,2.95180723 6.97530864,2.8313253 L7.77777778,2.10843373 L7.90123457,3.19277108 C7.90123457,3.37349398 8.02469136,3.55421687 8.20987654,3.6746988 L9.32098765,4.15662651 Z" id="Shape"></path>
                <path d="M28.8888889,26.8674699 C28.7037037,26.686747 28.4567901,26.626506 28.2716049,26.746988 L26.6666667,27.2891566 L25.308642,26.2650602 C25.1234568,26.1445783 24.8765432,26.0843373 24.6296296,26.2048193 C24.4444444,26.3253012 24.3209877,26.5060241 24.3209877,26.746988 L24.3209877,28.4337349 L22.9012346,29.3975904 C22.7160494,29.5180723 22.5925926,29.7590361 22.654321,30 C22.7160494,30.2409639 22.8395062,30.4216867 23.0864198,30.4819277 L24.7530864,30.9638554 L25.2469136,32.5903614 C25.308642,32.8313253 25.4938272,32.9518072 25.7407407,33.0120482 L25.8641975,33.0120482 C26.0493827,33.0120482 26.2345679,32.8915663 26.3580247,32.7710843 L27.345679,31.3855422 L29.0740741,31.3855422 C29.3209877,31.3855422 29.5061728,31.2650602 29.6296296,31.0240964 C29.7530864,30.8433735 29.691358,30.6024096 29.5679012,30.3614458 L28.5185185,29.0361446 L29.0740741,27.4698795 C29.0740741,27.2891566 29.0123457,27.0481928 28.8888889,26.8674699 Z M27.2839506,29.5783133 L27.7777778,30.1807229 L26.9753086,30.1807229 L26.9753086,30.1807229 C26.7901235,30.1807229 26.6049383,30.3012048 26.4814815,30.4216867 L26.0493827,31.0240964 L25.8024691,30.3012048 C25.7407407,30.1204819 25.617284,29.939759 25.3703704,29.8795181 L24.6296296,29.6385542 L25.2469136,29.2168675 C25.4320988,29.0963855 25.4938272,28.9156627 25.4938272,28.7349398 L25.4938272,27.9518072 L26.1111111,28.4337349 C26.2962963,28.5542169 26.4814815,28.6144578 26.6666667,28.4939759 L27.4074074,28.253012 L27.1604938,28.9759036 C27.1604938,29.1566265 27.1604938,29.3975904 27.2839506,29.5783133 Z" id="Shape"></path>
                <path d="M39.9382716,37.9518072 C39.9382716,37.7108434 39.8148148,37.5301205 39.6296296,37.4096386 L37.962963,36.5060241 L37.7777778,34.6385542 C37.7777778,34.3975904 37.5925926,34.2168675 37.4074074,34.1566265 C37.1604938,34.0963855 36.9135802,34.0963855 36.7901235,34.2771084 L35.3703704,35.5421687 L33.5185185,35.1204819 C33.2716049,35.060241 33.0246914,35.1807229 32.9012346,35.3012048 C32.7777778,35.4819277 32.7160494,35.7228916 32.8395062,35.9036145 L33.6419753,37.5903614 L32.654321,39.2168675 C32.5308642,39.3975904 32.5308642,39.6385542 32.654321,39.8795181 C32.7777778,40.1204819 33.0246914,40.1807229 33.2716049,40.1204819 L35.1851852,39.8795181 L36.4197531,41.2650602 C36.5432099,41.3855422 36.7283951,41.4457831 36.9135802,41.4457831 L37.0987654,41.4457831 C37.345679,41.3855422 37.4691358,41.2048193 37.5308642,40.9638554 L37.9012346,39.1566265 L39.6296296,38.4337349 C39.8148148,38.373494 39.9382716,38.1927711 39.9382716,37.9518072 Z M37.962963,37.8915663 L37.037037,38.253012 C36.8518519,38.313253 36.7283951,38.4939759 36.6666667,38.6746988 L36.4814815,39.6385542 L35.8641975,38.9156627 C35.7407407,38.7951807 35.5555556,38.6746988 35.308642,38.7349398 L34.3209877,38.8554217 L34.8148148,38.0120482 C34.9382716,37.8313253 34.9382716,37.6506024 34.8148148,37.4698795 L34.382716,36.626506 L35.308642,36.8072289 C35.4938272,36.8674699 35.7407407,36.8072289 35.8641975,36.686747 L36.6049383,36.0240964 L36.6666667,36.9879518 C36.6666667,37.1686747 36.7901235,37.3493976 36.9753086,37.4698795 L37.962963,37.8915663 Z" id="Shape"></path>
                <path d="M32.2839506,23.313253 L31.2962963,23.7349398 L31.1111111,24.7590361 C31.1111111,24.8795181 30.9876543,24.939759 30.8641975,25 L30.8024691,25 C30.7407407,25 30.617284,24.939759 30.5555556,24.8795181 L29.8765432,24.0963855 L28.8271605,24.2168675 C28.7037037,24.2168675 28.5802469,24.1566265 28.5185185,24.0963855 C28.4567901,23.9759036 28.4567901,23.8554217 28.5185185,23.7951807 L29.0740741,22.8915663 L28.6419753,21.9879518 C28.5802469,21.8674699 28.5802469,21.746988 28.7037037,21.686747 C28.7654321,21.626506 28.8888889,21.5662651 29.0123457,21.5662651 L30.0617284,21.8072289 L30.8024691,21.0843373 C30.8641975,21.0240964 30.9876543,20.9638554 31.1111111,21.0240964 C31.2345679,21.0843373 31.2962963,21.1445783 31.2962963,21.2650602 L31.4197531,22.2891566 L32.345679,22.7710843 C32.4691358,22.8313253 32.5308642,22.9518072 32.5308642,23.0722892 C32.4691358,23.1927711 32.4074074,23.313253 32.2839506,23.313253 Z" id="Shape"></path>
                <path d="M22.9012346,32.3493976 L23.0246914,33.373494 L23.9506173,33.8554217 C24.0740741,33.9156627 24.1358025,34.0361446 24.1358025,34.1566265 C24.1358025,34.2771084 24.0740741,34.3975904 23.9506173,34.3975904 L22.962963,34.8192771 L22.7777778,35.8433735 C22.7777778,35.9638554 22.654321,36.0240964 22.5308642,36.0843373 L22.4691358,36.0843373 C22.4074074,36.0843373 22.2839506,36.0240964 22.2222222,35.9638554 L21.5432099,35.1807229 L20.4938272,35.3012048 C20.3703704,35.3012048 20.2469136,35.2409639 20.1851852,35.1807229 C20.1234568,35.1204819 20.1234568,34.939759 20.1851852,34.8795181 L20.7407407,33.9759036 L20.308642,33.0722892 C20.2469136,32.9518072 20.2469136,32.8313253 20.3703704,32.7710843 C20.4320988,32.7108434 20.5555556,32.6506024 20.6790123,32.6506024 L21.7283951,32.8915663 L22.4691358,32.1686747 C22.5308642,32.1084337 22.654321,32.0481928 22.7777778,32.1084337 C22.7777778,32.1686747 22.9012346,32.2289157 22.9012346,32.3493976 Z" id="Shape"></path>
                <path d="M38.1481481,30.5421687 L37.1604938,30.9638554 L36.9753086,31.9277108 C36.9753086,32.0481928 36.8518519,32.1084337 36.7283951,32.1686747 L36.6666667,32.1686747 C36.6049383,32.1686747 36.4814815,32.1084337 36.4197531,32.0481928 L35.7407407,31.3253012 L34.691358,31.4457831 C34.5679012,31.4457831 34.4444444,31.3855422 34.382716,31.3253012 C34.3209877,31.2650602 34.3209877,31.0843373 34.382716,31.0240964 L34.9382716,30.1204819 L34.5061728,29.2168675 C34.4444444,29.0963855 34.4444444,28.9759036 34.5679012,28.9156627 C34.6296296,28.8554217 34.7530864,28.7951807 34.8765432,28.7951807 L35.9259259,29.0361446 L36.6666667,28.313253 C36.7283951,28.253012 36.8518519,28.1927711 36.9753086,28.253012 C37.0987654,28.313253 37.1604938,28.373494 37.1604938,28.4939759 L37.2839506,29.5180723 L38.2098765,30 C38.3333333,30.060241 38.3950617,30.1807229 38.3950617,30.3012048 C38.3333333,30.3614458 38.2716049,30.4819277 38.1481481,30.5421687 Z" id="Shape"></path>
                <path d="M41.9753086,43.6144578 L42.2839506,43.0722892 L42.037037,42.5301205 C41.9753086,42.4096386 41.9753086,42.2891566 42.0987654,42.2289157 C42.1604938,42.1686747 42.2839506,42.1084337 42.4074074,42.1084337 L43.0246914,42.2289157 L43.5185185,41.8072289 C43.5802469,41.746988 43.7037037,41.686747 43.8271605,41.746988 C43.9506173,41.8072289 44.0123457,41.8674699 44.0123457,41.9879518 L44.0740741,42.5903614 L44.6296296,42.8915663 C44.7530864,42.9518072 44.8148148,43.0722892 44.8148148,43.1927711 C44.8148148,43.313253 44.7530864,43.4337349 44.6296296,43.4337349 L44.0123457,43.6746988 L43.8888889,44.2771084 C43.8888889,44.3975904 43.7654321,44.4578313 43.6419753,44.5180723 L43.5802469,44.5180723 C43.5185185,44.5180723 43.3950617,44.4578313 43.3333333,44.3975904 L42.9012346,43.9156627 L42.2839506,43.9759036 C42.1604938,43.9759036 42.037037,43.9156627 41.9753086,43.8554217 C41.9135802,43.7951807 41.9135802,43.7349398 41.9753086,43.6144578 Z" id="Shape"></path>
                <ellipse id="Oval" cx="9.81481481" cy="24.4578313" rx="1" ry="1"></ellipse>
                <ellipse id="Oval" cx="21.9135802" cy="11.626506" rx="1" ry="1"></ellipse>
                <path d="M6.48148148,38.8554217 C7.83950617,38.8554217 8.88888889,37.7710843 8.88888889,36.5060241 C8.88888889,35.1807229 7.77777778,34.1566265 6.48148148,34.1566265 C5.18518519,34.1566265 4.07407407,35.2409639 4.07407407,36.5060241 C4.07407407,37.7710843 5.18518519,38.8554217 6.48148148,38.8554217 Z M6.48148148,37.6506024 C5.80246914,37.6506024 5.30864198,37.1084337 5.30864198,36.5060241 C5.30864198,35.9036145 5.86419753,35.3614458 6.48148148,35.3614458 C7.09876543,35.3614458 7.65432099,35.9036145 7.65432099,36.5060241 C7.65432099,37.1084337 7.16049383,37.6506024 6.48148148,37.6506024 Z" id="Shape"></path>
                <path d="M26.6666667,4.15662651 C26.6666667,2.8313253 25.5555556,1.80722892 24.2592593,1.80722892 C22.962963,1.80722892 21.8518519,2.89156627 21.8518519,4.15662651 C21.8518519,5.48192771 22.962963,6.5060241 24.2592593,6.5060241 C25.5555556,6.5060241 26.6666667,5.42168675 26.6666667,4.15662651 Z M25.4320988,4.15662651 C25.4320988,4.81927711 24.8765432,5.30120482 24.2592593,5.30120482 C23.6419753,5.30120482 23.0864198,4.75903614 23.0864198,4.15662651 C23.0864198,3.55421687 23.6419753,3.01204819 24.2592593,3.01204819 C24.8765432,3.01204819 25.4320988,3.4939759 25.4320988,4.15662651 Z" id="Shape"></path>
                <path d="M14.0740741,13.373494 C14.0740741,12.0481928 12.962963,11.0240964 11.6666667,11.0240964 C10.3703704,11.0240964 9.25925926,12.1084337 9.25925926,13.373494 C9.25925926,14.6385542 10.3703704,15.7228916 11.6666667,15.7228916 C12.962963,15.7228916 14.0740741,14.6385542 14.0740741,13.373494 Z M12.8395062,13.373494 C12.8395062,14.0361446 12.2839506,14.5180723 11.6666667,14.5180723 C11.0493827,14.5180723 10.4938272,13.9759036 10.4938272,13.373494 C10.4938272,12.7108434 11.0493827,12.2289157 11.6666667,12.2289157 C12.2839506,12.2289157 12.8395062,12.7108434 12.8395062,13.373494 Z" id="Shape"></path>
                <path d="M49.691358,49.2771084 C49.8765432,49.0963855 49.9382716,48.8554217 49.8148148,48.6144578 L34.8148148,13.8554217 C34.7530864,13.6746988 34.5679012,13.5542169 34.382716,13.4939759 C34.1975309,13.4337349 33.9506173,13.4939759 33.8271605,13.6746988 L13.2098765,33.7349398 C13.0864198,33.8554217 13.0246914,34.0963855 13.0246914,34.2771084 C13.0864198,34.4578313 13.2098765,34.6385542 13.3950617,34.6987952 L49.0123457,49.3975904 C49.0740741,49.4578313 49.1975309,49.4578313 49.2592593,49.4578313 C49.382716,49.4578313 49.5679012,49.3975904 49.691358,49.2771084 Z M42.4691358,34.7590361 L42.4691358,34.7590361 L39.0740741,43.9759036 L29.2592593,39.939759 L36.2962963,20.4819277 L42.4691358,34.7590361 Z M14.7530864,33.9759036 L19.0123457,29.8192771 L17.1604938,34.939759 L14.7530864,33.9759036 Z M35.617284,18.8554217 L28.1481481,39.5180723 L18.2716049,35.4216867 L21.0493827,27.8313253 L24.382716,24.5783133 L34.0123457,15.1807229 L35.617284,18.8554217 Z M48.0864198,47.7108434 L40.2469136,44.4578313 L43.2098765,36.3855422 L48.0864198,47.7108434 Z" id="Shape"></path>
                <path d="M22.1604938,18.4939759 C22.345679,18.7349398 22.2839506,19.1566265 22.037037,19.3373494 C21.9135802,19.3975904 21.7901235,19.4578313 21.6666667,19.4578313 C21.4814815,19.4578313 21.2962963,19.3975904 21.1728395,19.2168675 C20.9876543,18.9156627 15.9876543,12.2289157 17.345679,1.74698795 C17.4074074,1.44578313 17.7160494,1.20481928 18.0246914,1.20481928 C18.3333333,1.26506024 18.5802469,1.56626506 18.5802469,1.86746988 C17.2839506,11.8674699 22.0987654,18.4337349 22.1604938,18.4939759 Z" id="Shape"></path>
                <path d="M0.802469136,17.7710843 C11.4814815,16.2048193 17.962963,23.9759036 18.0864198,24.0963855 C18.2716049,24.3373494 18.2716049,24.7590361 17.962963,24.939759 C17.8395062,25 17.7160494,25.060241 17.5925926,25.060241 C17.4074074,25.060241 17.2222222,25 17.0987654,24.8192771 C17.037037,24.7590361 10.9876543,17.4698795 0.987654321,18.9759036 C0.679012346,19.0361446 0.308641975,18.7951807 0.308641975,18.4939759 C0.308641975,18.1927711 0.432098765,17.8313253 0.802469136,17.7710843 Z" id="Shape"></path>
                <path d="M28.5185185,13.9759036 C28.5802469,14.2771084 28.3950617,14.6385542 28.0246914,14.6987952 L27.9012346,14.6987952 C27.5925926,14.6987952 27.345679,14.5180723 27.2839506,14.2168675 C27.2222222,13.9759036 25.8641975,7.95180723 30.0617284,4.3373494 C30.308642,4.09638554 30.6790123,4.15662651 30.9259259,4.39759036 C31.1728395,4.63855422 31.1111111,5 30.8641975,5.24096386 C27.2839506,8.37349398 28.5185185,13.9156627 28.5185185,13.9759036 Z" id="Shape"></path>
                <path d="M13.3950617,29.3373494 C13.2716049,29.6385542 12.962963,29.8192771 12.654321,29.7590361 C12.5925926,29.7590361 5.67901235,27.7108434 2.65432099,31.8674699 C2.5308642,32.0481928 2.34567901,32.1084337 2.16049383,32.1084337 C2.03703704,32.1084337 1.91358025,32.0481928 1.79012346,31.9879518 C1.48148148,31.8072289 1.41975309,31.4457831 1.66666667,31.1445783 C5.18518519,26.3253012 12.7160494,28.4939759 13.0246914,28.6144578 C13.2716049,28.6746988 13.4567901,29.0361446 13.3950617,29.3373494 Z" id="Shape"></path>
            </g>
        </g>
    </g>
</svg>