<?xml version="1.0" encoding="UTF-8" standalone="no"?>
<svg width="10px" height="16px" viewBox="0 0 10 16" version="1.1" xmlns="http://www.w3.org/2000/svg" xmlns:xlink="http://www.w3.org/1999/xlink">
    <!-- Generator: Sketch 43 (38999) - http://www.bohemiancoding.com/sketch -->
    <title>smartphone-call</title>
    <desc>Created with Sketch.</desc>
    <defs></defs>
    <g id="Page-1" stroke="none" stroke-width="1" fill="none" fill-rule="evenodd">
        <g id="Créer-un-évéenment" transform="translate(-179.000000, -326.000000)" fill-rule="nonzero" fill="#8B743D">
            <g id="smartphone-call" transform="translate(179.000000, 326.000000)">
                <path d="M8.66105714,0.354630776 L1.5278,0.354630776 C0.933514286,0.354630776 0.447114286,0.811988759 0.447114286,1.37174674 L0.447114286,14.3959081 C0.447114286,14.9556661 0.933514286,15.4134543 1.5278,15.4134543 L8.66105714,15.4134543 C9.25534286,15.4134543 9.74174286,14.9565266 9.74174286,14.3963383 L9.74174286,1.37174674 C9.74174286,0.811988759 9.25534286,0.354630776 8.66105714,0.354630776 Z M3.9534,1.08778036 L6.23545714,1.08778036 C6.30768571,1.08778036 6.3662,1.14285262 6.3662,1.21126271 C6.3662,1.27924254 6.30768571,1.33431481 6.23545714,1.33431481 L3.9534,1.33431481 C3.88117143,1.33431481 3.82265714,1.27924254 3.82265714,1.21126271 C3.82265714,1.14285262 3.88117143,1.08778036 3.9534,1.08778036 Z M5.09442857,14.9048963 C4.79591429,14.9048963 4.55408571,14.677293 4.55408571,14.3959081 C4.55408571,14.1145232 4.79591429,13.8873501 5.09442857,13.8873501 C5.39294286,13.8873501 5.63477143,14.1145232 5.63477143,14.3959081 C5.63477143,14.677293 5.39294286,14.9048963 5.09442857,14.9048963 Z M8.98974286,13.5311014 L1.19911429,13.5311014 L1.19911429,1.9676459 L8.98974286,1.9676459 L8.98974286,13.5311014 Z" id="Shape"></path>
            </g>
        </g>
    </g>
</svg>