<?xml version="1.0" encoding="UTF-8" standalone="no"?>
<svg width="25px" height="25px" viewBox="0 0 25 25" version="1.1" xmlns="http://www.w3.org/2000/svg" xmlns:xlink="http://www.w3.org/1999/xlink">
    <!-- Generator: Sketch 43 (38999) - http://www.bohemiancoding.com/sketch -->
    <title>Shape</title>
    <desc>Created with Sketch.</desc>
    <defs></defs>
    <g id="Page-1" stroke="none" stroke-width="1" fill="none" fill-rule="evenodd">
        <g id="Créer-un-évéenment" transform="translate(-155.000000, -400.000000)" fill-rule="nonzero" fill="#FFFFFF">
            <path d="M164.545455,418.068182 L172.045455,412.443182 L164.545455,406.818182 L164.545455,418.068182 Z M167.5,400 C160.6,400 155,405.6 155,412.5 C155,419.4 160.6,425 167.5,425 C174.4,425 180,419.4 180,412.5 C180,405.6 174.4,400 167.5,400 Z M167.5,423.75 C161.298437,423.75 156.25,418.701563 156.25,412.5 C156.25,406.298438 161.298437,401.25 167.5,401.25 C173.701562,401.25 178.75,406.298438 178.75,412.5 C178.75,418.701563 173.701562,423.75 167.5,423.75 Z" id="Shape"></path>
        </g>
    </g>
</svg>