<?xml version="1.0" encoding="UTF-8" standalone="no"?>
<svg width="16px" height="16px" viewBox="0 0 16 16" version="1.1" xmlns="http://www.w3.org/2000/svg" xmlns:xlink="http://www.w3.org/1999/xlink">
    <!-- Generator: Sketch 43 (38999) - http://www.bohemiancoding.com/sketch -->
    <title>shuffle</title>
    <desc>Created with Sketch.</desc>
    <defs></defs>
    <g id="Page-1" stroke="none" stroke-width="1" fill="none" fill-rule="evenodd">
        <g id="Créer-un-évéenment" transform="translate(-299.000000, -400.000000)" fill-rule="nonzero" fill="#FFFFFF">
            <g id="shuffle" transform="translate(299.000000, 400.000000)">
                <path d="M9,3.6 L12.3333333,3.6 L12.3333333,6.4 L16,3.2 L12.3333333,0 L12.3333333,2.8 L9,2.8 C6.61066667,2.8 4.66666667,5.1328 4.66666667,8 C4.66666667,10.426 3.02166667,12.4 1,12.4 L0.333333333,12.4 C0.149,12.4 0,12.5788 0,12.8 C0,13.0212 0.149,13.2 0.333333333,13.2 L1,13.2 C3.38933333,13.2 5.33333333,10.8672 5.33333333,8 C5.33333333,5.574 6.97833333,3.6 9,3.6 Z" id="Shape"></path>
                <path d="M0.333333333,3.6 L1,3.6 C1.90433333,3.6 2.77266667,3.9976 3.44533333,4.7196 C3.509,4.788 3.58866667,4.8216 3.66766667,4.8216 C3.759,4.8216 3.85033333,4.7768 3.916,4.6884 C4.03866667,4.5236 4.027,4.2708 3.89,4.1236 C3.095,3.27 2.06866667,2.8 1,2.8 L0.333333333,2.8 C0.149,2.8 0,2.9788 0,3.2 C0,3.4212 0.149,3.6 0.333333333,3.6 Z" id="Shape"></path>
                <path d="M12.3333333,12.4 L9,12.4 C8.105,12.4 7.24333333,12.0096 6.574,11.3008 C6.437,11.1548 6.226,11.17 6.10366667,11.3364 C5.982,11.502 5.995,11.7548 6.13333333,11.9008 C6.92433333,12.7388 7.94266667,13.2 9,13.2 L12.3333333,13.2 L12.3333333,16 L16,12.8 L12.3333333,9.6 L12.3333333,12.4 Z" id="Shape"></path>
            </g>
        </g>
    </g>
</svg>