<?xml version="1.0" encoding="UTF-8" standalone="no"?>
<svg width="16px" height="16px" viewBox="0 0 16 16" version="1.1" xmlns="http://www.w3.org/2000/svg" xmlns:xlink="http://www.w3.org/1999/xlink">
    <!-- Generator: Sketch 43 (38999) - http://www.bohemiancoding.com/sketch -->
    <title>repeat</title>
    <desc>Created with Sketch.</desc>
    <defs></defs>
    <g id="Page-1" stroke="none" stroke-width="1" fill="none" fill-rule="evenodd">
        <g id="Créer-un-évéenment" transform="translate(-539.000000, -399.000000)" fill-rule="nonzero" fill="#FFFFFF">
            <g id="repeat" transform="translate(539.000000, 399.000000)">
                <path d="M0.523076923,7.73333333 C0.693230769,7.73333333 0.830769231,7.58433333 0.830769231,7.4 C0.830769231,5.37833333 2.34923077,3.73333333 4.21538462,3.73333333 L11.6,3.73333333 L11.6,6.72133333 L15.8153846,3.4 L11.6,0.0786666667 L11.6,3.06666667 L4.21538462,3.06666667 C2.00984615,3.06666667 0.215384615,5.01066667 0.215384615,7.4 C0.215384615,7.58433333 0.352923077,7.73333333 0.523076923,7.73333333 Z" id="Shape"></path>
                <path d="M15.2923077,8.06666667 C15.1221538,8.06666667 14.9846154,8.21566667 14.9846154,8.4 C14.9846154,10.4216667 13.4661538,12.0666667 11.6,12.0666667 L4.21538462,12.0666667 L4.21538462,9.07866667 L0,12.4 L4.21538462,15.7213333 L4.21538462,12.7333333 L11.6,12.7333333 C13.8055385,12.7333333 15.6,10.7893333 15.6,8.4 C15.6,8.21566667 15.4624615,8.06666667 15.2923077,8.06666667 Z" id="Shape"></path>
            </g>
        </g>
    </g>
</svg>