<?xml version="1.0" encoding="UTF-8" standalone="no"?>
<svg width="12px" height="16px" viewBox="0 0 12 16" version="1.1" xmlns="http://www.w3.org/2000/svg" xmlns:xlink="http://www.w3.org/1999/xlink">
    <!-- Generator: Sketch 43 (38999) - http://www.bohemiancoding.com/sketch -->
    <title>intersex</title>
    <desc>Created with Sketch.</desc>
    <defs></defs>
    <g id="Page-1" stroke="none" stroke-width="1" fill="none" fill-rule="evenodd">
        <g id="Créer-un-évéenment" transform="translate(-219.000000, -326.000000)" fill-rule="nonzero" fill="#8B743D">
            <g id="intersex" transform="translate(219.000000, 326.000000)">
                <path d="M11.9598266,0.739764706 C11.9597276,0.716433437 11.9585882,0.693151703 11.9563096,0.669869969 C11.9551703,0.658179567 11.9529907,0.646786378 11.9513065,0.635244582 C11.9494737,0.622860681 11.9480867,0.610377709 11.9456099,0.598092879 C11.9430341,0.58501548 11.9394675,0.572334365 11.9361981,0.55955418 C11.9334737,0.548904025 11.9311455,0.538204334 11.9280248,0.527653251 C11.9242105,0.515071207 11.9195046,0.502885449 11.9150464,0.490600619 C11.9112322,0.480099071 11.9078142,0.469498452 11.9035542,0.459095975 C11.8986997,0.447455108 11.8930526,0.436210526 11.8876533,0.424866873 C11.8826502,0.414315789 11.8779938,0.403616099 11.8724458,0.393263158 C11.866452,0.382068111 11.8596656,0.371467492 11.8531269,0.360619195 C11.8471331,0.350712074 11.8415851,0.340656347 11.835096,0.330947368 C11.8268235,0.318563467 11.8176099,0.306823529 11.808644,0.294934985 C11.8029969,0.287504644 11.7978452,0.279826625 11.7919009,0.272544892 C11.760644,0.234402477 11.7257214,0.199430341 11.6875789,0.16822291 C11.680743,0.162625387 11.6734613,0.157770898 11.6664768,0.152470588 C11.654192,0.143108359 11.6420062,0.133597523 11.6291269,0.125027864 C11.6199133,0.118885449 11.6103529,0.113585139 11.6009412,0.107888545 C11.5895975,0.101003096 11.5784025,0.0939195046 11.5667121,0.087628483 C11.5570031,0.0824767802 11.5470464,0.0781176471 11.5371889,0.0734117647 C11.5251022,0.0676160991 11.5131641,0.0616718266 11.5007307,0.0565201238 C11.4912693,0.0526068111 11.4816099,0.0495356037 11.4720495,0.0460185759 C11.458774,0.0411640867 11.4456471,0.0361114551 11.4320743,0.0320495356 C11.4228111,0.0292755418 11.4133994,0.027244582 11.4040867,0.0248668731 C11.389969,0.0212012384 11.3759505,0.0173374613 11.3615356,0.0144643963 C11.3514303,0.0124829721 11.341226,0.0113436533 11.3310712,0.00980804954 C11.3173003,0.00767801858 11.303678,0.00520123839 11.2896594,0.00381424149 C11.2735604,0.00227863777 11.2574613,0.00188235294 11.2412632,0.0013869969 C11.2330898,0.000941176471 11.2251146,0 11.2169412,0 L8.87098452,0 C8.46063158,0 8.12795046,0.332681115 8.12795046,0.743034056 C8.12795046,1.153387 8.46063158,1.48606811 8.87098452,1.48606811 L9.42320743,1.48606811 L8.30380186,2.60547368 C7.43965325,1.95521981 6.36582043,1.56928793 5.20351703,1.56928793 C2.35462539,1.56928793 0.0368544892,3.88705882 0.0368544892,6.736 C0.0368544892,9.33260681 1.96235294,11.4876037 4.46043344,11.8490155 L4.46048297,12.8148111 L3.54471827,12.8148111 C3.13436533,12.8148111 2.80168421,13.1474923 2.80168421,13.5578452 C2.80168421,13.9681981 3.13436533,14.3008793 3.54471827,14.3008793 L4.46053251,14.3008793 L4.46058204,15.2166935 C4.46058204,15.6270464 4.79326316,15.9597276 5.2036161,15.9597276 C5.61396904,15.9597276 5.94665015,15.6270464 5.94665015,15.216644 L5.94660062,14.3008793 L6.86236533,14.3008793 C7.27271827,14.3008793 7.60539938,13.9681981 7.60539938,13.5578452 C7.60539938,13.1474923 7.27271827,12.8148111 6.86236533,12.8148111 L5.94660062,12.8148111 L5.94655108,11.8490155 C8.44463158,11.4876533 10.3701796,9.33260681 10.3701796,6.736 C10.3701796,5.58424768 9.9912322,4.5193808 9.35162848,3.65929412 L10.4739071,2.53696594 L10.4739071,3.08904025 C10.4739071,3.49939319 10.8065882,3.8320743 11.2169412,3.8320743 C11.6272941,3.8320743 11.9599752,3.49939319 11.9599752,3.08904025 L11.9599752,0.743034056 C11.9599752,0.741944272 11.9598266,0.740904025 11.9598266,0.739764706 Z M5.20351703,10.4165944 C3.17404334,10.4165944 1.5229226,8.76547368 1.5229226,6.736 C1.5229226,4.70647678 3.17399381,3.05535604 5.20351703,3.05535604 C7.23299071,3.05535604 8.88411146,4.70647678 8.88411146,6.736 C8.88411146,8.76547368 7.23299071,10.4165944 5.20351703,10.4165944 Z" id="XMLID_444_"></path>
            </g>
        </g>
    </g>
</svg>