<?xml version="1.0" encoding="UTF-8" standalone="no"?>
<svg width="20px" height="16px" viewBox="0 0 20 16" version="1.1" xmlns="http://www.w3.org/2000/svg" xmlns:xlink="http://www.w3.org/1999/xlink">
    <!-- Generator: Sketch 43 (38999) - http://www.bohemiancoding.com/sketch -->
    <title>Group 2</title>
    <desc>Created with Sketch.</desc>
    <defs></defs>
    <g id="Page-1" stroke="none" stroke-width="1" fill="none" fill-rule="evenodd">
        <g id="Créer-un-évéenment" transform="translate(-215.000000, -361.000000)" fill="#8B743D">
            <g id="Group-2" transform="translate(215.000000, 361.000000)">
                <path d="M0,10.1818182 C0,8.58181818 1.1125,7.27272727 2.5,7.27272727 C3.875,7.27272727 5,8.58181818 5,10.1818182 C5,11.7963636 3.875,13.0909091 2.5,13.0909091 C1.1125,13.0909091 0,11.7963636 0,10.1818182 L0,10.1818182 Z" id="Shape"></path>
                <path d="M6.25,2.90909091 C6.25,1.30909091 7.3625,0 8.75,0 C10.125,0 11.25,1.30909091 11.25,2.90909091 C11.25,4.52363636 10.125,5.81818182 8.75,5.81818182 C7.3625,5.81818182 6.25,4.52363636 6.25,2.90909091 L6.25,2.90909091 Z" id="Shape"></path>
                <path d="M15,13.0909091 C15,11.4909091 16.1125,10.1818182 17.5,10.1818182 C18.875,10.1818182 20,11.4909091 20,13.0909091 C20,14.7054545 18.875,16 17.5,16 C16.1125,16 15,14.7054545 15,13.0909091 L15,13.0909091 Z" id="Shape"></path>
                <polygon id="Shape" points="7.94194174 3.42335039 7.05805826 2.39483143 0.808058262 9.6675587 1.69194174 10.6960777"></polygon>
                <polygon id="Shape" points="17.0580583 13.6051686 17.9419417 12.5766496 9.19194174 2.39483143 8.30805826 3.42335039"></polygon>
            </g>
        </g>
    </g>
</svg>