<?xml version="1.0" encoding="UTF-8" standalone="no"?>
<svg width="13px" height="16px" viewBox="0 0 13 16" version="1.1" xmlns="http://www.w3.org/2000/svg" xmlns:xlink="http://www.w3.org/1999/xlink">
    <!-- Generator: Sketch 43 (38999) - http://www.bohemiancoding.com/sketch -->
    <title>user</title>
    <desc>Created with Sketch.</desc>
    <defs></defs>
    <g id="Page-1" stroke="none" stroke-width="1" fill="none" fill-rule="evenodd">
        <g id="Créer-un-évéenment" transform="translate(-66.000000, -326.000000)" fill-rule="nonzero" fill="#8B743D">
            <g id="user" transform="translate(66.000000, 326.000000)">
                <path d="M11.590913,11.4370667 L8.89115217,10.1634667 C8.63652174,10.0432 8.47826087,9.8016 8.47826087,9.5328 L8.47826087,8.6312 C8.54297826,8.55653333 8.61108696,8.47146667 8.68145652,8.3776 C9.0316087,7.91093333 9.31223913,7.39146667 9.51628261,6.8312 C9.91504348,6.65866667 10.173913,6.28666667 10.173913,5.86666667 L10.173913,4.8 C10.173913,4.5432 10.0721739,4.2944 9.89130435,4.1 L9.89130435,2.6816 C9.90713043,2.53493333 9.96930435,1.66186667 9.30008696,0.9416 C8.7196087,0.3168 7.77767391,0 6.5,0 C5.22232609,0 4.2803913,0.3168 3.69991304,0.941333333 C3.03069565,1.6616 3.09286957,2.53493333 3.10869565,2.6816 L3.10869565,4.1 C2.92782609,4.2944 2.82608696,4.5432 2.82608696,4.8 L2.82608696,5.86666667 C2.82608696,6.1912 2.98236957,6.49386667 3.24915217,6.69573333 C3.50802174,7.66293333 4.04978261,8.39173333 4.23913043,8.6256 L4.23913043,9.508 C4.23913043,9.76613333 4.08991304,10.0029333 3.84997826,10.1266667 L1.32882609,11.4242667 C0.508978261,11.8464 0,12.6554667 0,13.5365333 L0,14.4 C0,15.6656 4.25184783,16 6.5,16 C8.74815217,16 13,15.6656 13,14.4 L13,13.5885333 C13,12.6717333 12.4599348,11.8472 11.590913,11.4370667 Z" id="Shape"></path>
            </g>
        </g>
    </g>
</svg>