<?xml version="1.0" encoding="UTF-8" standalone="no"?>
<svg width="50px" height="50px" viewBox="0 0 50 50" version="1.1" xmlns="http://www.w3.org/2000/svg" xmlns:xlink="http://www.w3.org/1999/xlink">
    <!-- Generator: Sketch 43 (38999) - http://www.bohemiancoding.com/sketch -->
    <title>cocktail</title>
    <desc>Created with Sketch.</desc>
    <defs></defs>
    <g id="Page-1" stroke="none" stroke-width="1" fill="none" fill-rule="evenodd">
        <g id="Créer-un-évéenment" transform="translate(-56.000000, -46.000000)" fill-rule="nonzero" fill="#FFFFFF">
            <g id="cocktail" transform="translate(56.000000, 46.000000)">
                <path d="M48.8805215,3.2443038 C50.0615794,2.04746835 49.2286228,0 47.5658176,0 L2.61724166,0 C0.951950069,0 0.122101516,2.05063291 1.30067294,3.24367089 L21.9834826,24.3126582 L21.9834826,44.4050633 L12.3995088,46.1088608 C10.0777977,46.5018987 10.3811431,50 12.7215025,50 L37.4615568,50 C39.8056458,50 40.1002887,46.5006329 37.7872801,46.1094937 L28.1995767,44.4050633 L28.1995767,24.3126582 L48.8805215,3.2443038 Z M27.4710504,45.5601266 L37.5790409,47.356962 C38.400187,47.4962025 38.2901621,48.7341772 37.4615568,48.7341772 L12.7215025,48.7341772 C11.8928972,48.7341772 11.7816291,47.4968354 12.6083696,47.3563291 L22.7120088,45.5601266 C23.0091381,45.506962 23.2267014,45.2443038 23.2267014,44.9367089 L23.2267014,24.0506329 C23.2267014,23.8829114 23.1614324,23.721519 23.0445699,23.6031646 L2.17900703,2.34683544 C1.78552828,1.94873418 2.06276607,1.26582278 2.61786327,1.26582278 L35.4015432,1.26582278 L29.6734125,7.09810127 C28.7391336,6.32658228 27.551238,5.86265823 26.2576689,5.86265823 C23.2615116,5.86265823 20.8241811,8.3443038 20.8241811,11.3955696 C20.8241811,14.4462025 23.2615116,16.9278481 26.2576689,16.9278481 C29.2538262,16.9278481 31.6911567,14.4462025 31.6911567,11.3955696 C31.6911567,10.1170886 31.2591381,8.94240506 30.5418009,8.00443038 L37.1594546,1.26582278 L47.5658176,1.26582278 C48.1202932,1.26582278 48.3969094,1.94810127 48.002809,2.34810127 L27.1384894,23.6031646 C27.0216268,23.721519 26.9563578,23.8829114 26.9563578,24.0506329 L26.9563578,44.9367089 C26.9563578,45.2443038 27.1739211,45.506962 27.4710504,45.5601266 Z M30.4479379,11.3949367 C30.4479379,13.7474684 28.568191,15.6613924 26.2576689,15.6613924 C23.9471467,15.6613924 22.0673999,13.7474684 22.0673999,11.3949367 C22.0673999,9.04240506 23.9471467,7.1278481 26.2576689,7.1278481 C28.568191,7.1278481 30.4479379,9.04240506 30.4479379,11.3949367 Z" id="Shape"></path>
            </g>
        </g>
    </g>
</svg>