<?xml version="1.0" encoding="UTF-8" standalone="no"?>
<svg width="18px" height="16px" viewBox="0 0 18 16" version="1.1" xmlns="http://www.w3.org/2000/svg" xmlns:xlink="http://www.w3.org/1999/xlink">
    <!-- Generator: Sketch 43 (38999) - http://www.bohemiancoding.com/sketch -->
    <title>comment-black-oval-bubble-shape</title>
    <desc>Created with Sketch.</desc>
    <defs></defs>
    <g id="Page-1" stroke="none" stroke-width="1" fill="none" fill-rule="evenodd">
        <g id="Créer-un-évéenment" transform="translate(-262.000000, -128.000000)" fill-rule="nonzero" fill="#FFFFFF">
            <g id="comment-black-oval-bubble-shape" transform="translate(270.727273, 136.000000) rotate(-360.000000) translate(-270.727273, -136.000000) translate(262.000000, 128.000000)">
                <path d="M16.2740114,3.13273028 C15.4952727,2.1709163 14.4375,1.4112018 13.1009659,0.853655297 C11.7644659,0.29617731 10.3043182,0.0173697971 8.72103409,0.0173697971 C7.54002273,0.0173697971 6.41096591,0.181988881 5.33386364,0.511295567 C4.25676136,0.840567994 3.32890909,1.28563907 2.55023864,1.84640601 C1.77143182,2.40724147 1.15189773,3.07400872 0.691125,3.84667348 C0.230352273,4.6193725 0,5.4296547 0,6.27738302 C0,7.25547047 0.293522727,8.17195853 0.880806818,9.02619624 C1.46809091,9.88033118 2.27096591,10.5977346 3.28980682,11.1780983 C3.21835227,11.4388508 3.13401136,11.6867216 3.03664773,11.9212995 C2.93931818,12.1560487 2.85173864,12.3486582 2.773875,12.498614 C2.69594318,12.6485698 2.59060227,12.8149361 2.45747727,12.9975074 C2.32455682,13.1800445 2.22398864,13.3088962 2.15584091,13.3837884 C2.08776136,13.4588177 1.97584091,13.5829073 1.82001136,13.7554747 C1.66438636,13.9284189 1.56375,14.0408258 1.518375,14.0931065 C1.51179545,14.0961557 1.48588636,14.125722 1.44047727,14.1810518 C1.39510227,14.2363817 1.37232955,14.2640637 1.37232955,14.2640637 L1.31393182,14.3519748 C1.28144318,14.4010008 1.26685227,14.4319375 1.27005682,14.4447165 C1.27332955,14.4574954 1.26685227,14.4903165 1.250625,14.5423916 C1.23436364,14.5946723 1.23603409,14.6338314 1.25546591,14.660006 L1.25546591,14.6697358 C1.28154545,14.7872132 1.33830682,14.8817022 1.42585227,14.9533055 C1.51339773,15.0249773 1.61246591,15.0543724 1.72271591,15.0411137 C2.14459091,14.9889701 2.51440909,14.9175724 2.83230682,14.8260983 C4.53242045,14.3890098 6.02488636,13.6002086 7.30960227,12.4588382 C7.79614773,12.5109818 8.26660227,12.5371564 8.72082955,12.5371564 C10.3040795,12.5371564 11.7641591,12.2583489 13.1007955,11.7006311 C14.4374318,11.1431531 15.4951023,10.3834044 16.2737045,9.42176168 C17.0524432,8.46035883 17.4417614,7.41196995 17.4417614,6.27734876 C17.4417955,5.14269331 17.0525114,4.09437295 16.2740114,3.13273028 Z" id="Shape"></path>
            </g>
        </g>
    </g>
</svg>