<?xml version="1.0" encoding="UTF-8" standalone="no"?>
<svg width="15px" height="15px" viewBox="0 0 15 15" version="1.1" xmlns="http://www.w3.org/2000/svg" xmlns:xlink="http://www.w3.org/1999/xlink">
    <!-- Generator: Sketch 43 (38999) - http://www.bohemiancoding.com/sketch -->
    <title>left-arrow</title>
    <desc>Created with Sketch.</desc>
    <defs></defs>
    <g id="Page-1" stroke="none" stroke-width="1" fill="none" fill-rule="evenodd">
        <g id="Créer-un-évéenment" transform="translate(-76.000000, -221.000000)" fill-rule="nonzero" fill="#FFFFFF">
            <g id="left-arrow" transform="translate(75.000000, 221.000000)">
                <path d="M14.7948225,6.91195835 L1.70809482,6.91195835 C1.39048927,6.91195835 1.13300132,7.24792577 1.13300132,7.66233396 C1.13300132,8.07677844 1.39048927,8.41270958 1.70809482,8.41270958 L14.7948225,8.41270958 C15.1124558,8.41270958 15.369916,8.07677844 15.369916,7.66233396 C15.369916,7.24792577 15.1124558,6.91195835 14.7948225,6.91195835 Z" id="Shape"></path>
                <path d="M2.52143418,7.66233396 L7.02227346,1.7896525 C7.24686635,1.49660619 7.24686635,1.02149892 7.02227346,0.728452605 C6.79768057,0.435442575 6.4335548,0.435442575 6.20896191,0.728452605 L1.30145294,7.13171588 C1.07686005,7.42476219 1.07686005,7.89986946 1.30145294,8.19291577 L6.20896191,14.596179 C6.32124445,14.7427203 6.46845192,14.8159728 6.61563159,14.8159728 C6.76281125,14.8159728 6.91001873,14.7427203 7.02230127,14.596179 C7.24689416,14.3031327 7.24689416,13.8280255 7.02230127,13.5349791 L2.52143418,7.66233396 Z" id="Shape"></path>
            </g>
        </g>
    </g>
</svg>