<?xml version="1.0" encoding="UTF-8" standalone="no"?>
<svg width="16px" height="16px" viewBox="0 0 16 16" version="1.1" xmlns="http://www.w3.org/2000/svg" xmlns:xlink="http://www.w3.org/1999/xlink">
    <!-- Generator: Sketch 43 (38999) - http://www.bohemiancoding.com/sketch -->
    <title>like (1)</title>
    <desc>Created with Sketch.</desc>
    <defs></defs>
    <g id="Page-1" stroke="none" stroke-width="1" fill="none" fill-rule="evenodd">
        <g id="Créer-un-évéenment" transform="translate(-291.000000, -127.000000)" fill-rule="nonzero" fill="#ED1829">
            <g id="like-(1)" transform="translate(291.000000, 127.000000)">
                <g id="like">
                    <path d="M15.9726154,4.68984615 C15.7390769,2.11938462 13.9196923,0.254461538 11.6427692,0.254461538 C10.1258462,0.254461538 8.73692308,1.07076923 7.95538462,2.37907692 C7.18092308,1.05384615 5.84892308,0.254153846 4.35630769,0.254153846 C2.07969231,0.254153846 0.26,2.11907692 0.0267692308,4.68953846 C0.00830769231,4.80307692 -0.0673846154,5.40061538 0.162769231,6.37507692 C0.494461538,7.78061538 1.26061538,9.05907692 2.37784615,10.0713846 L7.95169231,15.1295385 L13.6212308,10.0716923 C14.7384615,9.05907692 15.5046154,7.78092308 15.8363077,6.37507692 C16.0664615,5.40092308 15.9907692,4.80338462 15.9726154,4.68984615 Z" id="Shape"></path>
                </g>
            </g>
        </g>
    </g>
</svg>