<?xml version="1.0" encoding="UTF-8" standalone="no"?>
<svg width="16px" height="16px" viewBox="0 0 16 16" version="1.1" xmlns="http://www.w3.org/2000/svg" xmlns:xlink="http://www.w3.org/1999/xlink">
    <!-- Generator: Sketch 43 (38999) - http://www.bohemiancoding.com/sketch -->
    <title>bell</title>
    <desc>Created with Sketch.</desc>
    <defs></defs>
    <g id="Page-1" stroke="none" stroke-width="1" fill="none" fill-rule="evenodd">
        <g id="Créer-un-évéenment" transform="translate(-229.000000, -127.000000)" fill-rule="nonzero" fill="#FFFFFF">
            <g id="bell" transform="translate(229.000000, 127.000000)">
                <path d="M9.77777778,14.4 C9.77777778,15.2836556 8.98183956,16 8,16 C7.01816044,16 6.22222222,15.2836556 6.22222222,14.4 L9.77777778,14.4 L9.77777778,14.4 Z M8,0 C8.49091978,0 8.88888889,0.3581722 8.88888889,0.8 L8.88888889,1.664 C11.4133333,2.048 13.3333333,4.024 13.3333333,6.4 L13.3333333,11.2 L16,13.6 L0,13.6 L2.66666667,11.2 L2.66666667,6.4 C2.66666667,4.024 4.58666667,2.048 7.11111111,1.664 L7.11111111,0.8 C7.11111111,0.3581722 7.50908022,0 8,0 Z" id="Shape"></path>
            </g>
        </g>
    </g>
</svg>