<?xml version="1.0" encoding="UTF-8" standalone="no"?>
<svg width="20px" height="20px" viewBox="0 0 20 20" version="1.1" xmlns="http://www.w3.org/2000/svg" xmlns:xlink="http://www.w3.org/1999/xlink">
    <!-- Generator: Sketch 43 (38999) - http://www.bohemiancoding.com/sketch -->
    <title>ic_play_circle_outline_white_24px</title>
    <desc>Created with Sketch.</desc>
    <defs></defs>
    <g id="Page-1" stroke="none" stroke-width="1" fill="none" fill-rule="evenodd">
        <g id="Créer-un-évéenment" transform="translate(-306.000000, -177.000000)">
            <g id="ic_play_circle_outline_white_24px" transform="translate(305.000000, 176.000000)">
                <polygon id="Shape" points="0 0 22 0 22 22 0 22"></polygon>
                <circle id="Oval" stroke="#979797" fill="#0F1326" opacity="0.547632929" cx="11" cy="10.45" r="8.8"></circle>
                <path d="M8.83333333,15.0833333 L14.3333333,10.9583333 L8.83333333,6.83333333 L8.83333333,15.0833333 Z M11,1.83333333 C5.94,1.83333333 1.83333333,5.94 1.83333333,11 C1.83333333,16.06 5.94,20.1666667 11,20.1666667 C16.06,20.1666667 20.1666667,16.06 20.1666667,11 C20.1666667,5.94 16.06,1.83333333 11,1.83333333 Z M11,19.25 C6.4521875,19.25 2.75,15.5478125 2.75,11 C2.75,6.4521875 6.4521875,2.75 11,2.75 C15.5478125,2.75 19.25,6.4521875 19.25,11 C19.25,15.5478125 15.5478125,19.25 11,19.25 Z" id="Shape" fill="#FFFFFF" fill-rule="nonzero"></path>
            </g>
        </g>
    </g>
</svg>