<?xml version="1.0" encoding="UTF-8" standalone="no"?>
<svg width="16px" height="16px" viewBox="0 0 16 16" version="1.1" xmlns="http://www.w3.org/2000/svg" xmlns:xlink="http://www.w3.org/1999/xlink">
    <!-- Generator: Sketch 43 (38999) - http://www.bohemiancoding.com/sketch -->
    <title>Shape</title>
    <desc>Created with Sketch.</desc>
    <defs></defs>
    <g id="Page-1" stroke="none" stroke-width="1" fill="none" fill-rule="evenodd">
        <g id="Créer-un-évéenment" transform="translate(-275.000000, -180.000000)" fill-rule="nonzero" fill="#FFFFFF">
            <path d="M286.435106,190.062893 L285.712407,190.062893 L285.456261,189.815895 C286.352773,188.773013 286.89251,187.419097 286.89251,185.946255 C286.89251,182.662093 284.230417,180 280.946255,180 C277.662093,180 275,182.662093 275,185.946255 C275,189.230417 277.662093,191.89251 280.946255,191.89251 C282.419097,191.89251 283.773013,191.352773 284.815895,190.456261 L285.062893,190.712407 L285.062893,191.435106 L289.636935,196 L291,194.636935 L286.435106,190.062893 L286.435106,190.062893 Z M280.946255,190.062893 C278.668382,190.062893 276.829617,188.224128 276.829617,185.946255 C276.829617,183.668382 278.668382,181.829617 280.946255,181.829617 C283.224128,181.829617 285.062893,183.668382 285.062893,185.946255 C285.062893,188.224128 283.224128,190.062893 280.946255,190.062893 Z" id="Shape"></path>
        </g>
    </g>
</svg>